<svg width="319" height="162" viewBox="0 0 319 162" fill="none" xmlns="http://www.w3.org/2000/svg">
<path d="M31.7728 1C24.5931 1 18.7728 6.82029 18.7728 14V123.324C18.7728 124.447 18.6057 125.53 18.2191 126.534C16.6493 130.611 11.9421 141.201 2.79552 149.524C2.00528 150.243 1.42919 150.995 1.16275 151.794C0.881889 152.635 0.969864 153.46 1.38563 154.199C1.77914 154.898 2.43197 155.463 3.19017 155.929C3.95696 156.4 4.90015 156.813 5.96472 157.178C10.1918 158.631 16.8735 159.524 23.8662 160.081C37.9028 161.199 53.6311 160.99 54.648 160.975L54.6803 160.975C54.7119 160.975 54.7308 160.975 54.7814 160.975H305C312.18 160.975 318 155.154 318 147.975V14C318 6.8203 312.18 1 305 1H31.7728Z" fill="#BBFF2C" stroke="black" stroke-width="2"/>
</svg>
