<svg width="114" height="131" fill="none" xmlns="http://www.w3.org/2000/svg"><g opacity=".7"><path d="M112.979 2.168c.932-1.356-.956-2.898-2.166-1.788-8.223 7.576-24.461 23.406-28.723 28.322-6.32 7.291-22.357 27.22-31.59 36.94-9.233 9.717-47.55 51.388-47.55 51.388l12.554 9.849S57.305 72.932 64.11 65.641c6.112-6.55 33.055-40.345 48.869-63.473z" fill="#515092"/><path d="M2.256 113.847c1.642-1.819 4.485-2.428 7.314-2.297.54-.663 2.12-.547 2.774-.455 4.848.679 8.948 3.861 9.403 8.956.416 4.639-2.228 8.939-6.752 10.28-4.423 1.311-10.388-.285-13.278-3.992-2.513-3.229-2.212-9.433.54-12.485v-.007z" fill="#57B6FF"/></g></svg>