<svg width="114" height="131" fill="none" xmlns="http://www.w3.org/2000/svg"><g opacity=".7"><path d="M.25 2.168C-.682.812 1.206-.73 2.416.38c8.223 7.576 24.461 23.406 28.723 28.322 6.32 7.291 22.357 27.22 31.59 36.94 9.233 9.717 47.551 51.388 47.551 51.388l-12.555 9.849S55.924 72.932 49.12 65.641C43.007 59.091 16.064 25.296.25 2.168z" fill="#515092"/><path d="M110.973 113.847c-1.642-1.819-4.485-2.428-7.314-2.297-.539-.663-2.119-.547-2.774-.455-4.848.679-8.948 3.861-9.403 8.956-.416 4.639 2.228 8.94 6.752 10.28 4.423 1.311 10.388-.285 13.278-3.992 2.513-3.229 2.212-9.433-.539-12.485v-.007z" fill="#BAA4FF"/></g></svg>