<svg width="31" height="32" fill="none" xmlns="http://www.w3.org/2000/svg"><path d="M15.5 31.5c8.3 0 15-6.956 15-15.5S23.8.5 15.5.5.5 7.456.5 16s6.7 15.5 15 15.5z" fill="#BBFF2C" stroke="#000"/><path d="M18.022 7.753a11.7 11.7 0 00-.427.84 16.802 16.802 0 00-4.194 0 13.54 13.54 0 00-.434-.838.5.5 0 00-.52-.248c-1.543.26-3.044.725-4.462 1.384a.5.5 0 00-.204.175c-2.803 4.178-3.57 8.276-3.19 12.299a.5.5 0 00.2.354 17.903 17.903 0 005.468 2.76.5.5 0 00.548-.183 13.84 13.84 0 001.183-1.918.5.5 0 00.053-.2c2.261.626 4.653.626 6.914-.002a.5.5 0 00.054.206c.34.67.735 1.312 1.184 1.916a.5.5 0 00.547.18 17.833 17.833 0 005.469-2.76.5.5 0 00.199-.353c.444-4.668-.77-8.725-3.208-12.311a.5.5 0 00-.256-.194 17.806 17.806 0 00-4.406-1.353.5.5 0 00-.518.246zm-6.01 10.658c-.709 0-1.387-.67-1.387-1.614 0-.95.664-1.624 1.386-1.624.73 0 1.398.67 1.39 1.614-.008.958-.669 1.624-1.39 1.624zm6.977 0c-.708 0-1.386-.67-1.386-1.614 0-.95.664-1.624 1.386-1.624.73 0 1.397.67 1.387 1.612-.01.962-.668 1.626-1.387 1.626z" fill="#fff" stroke="#000" stroke-linejoin="round"/></svg>