<svg width="31" height="32" fill="none" xmlns="http://www.w3.org/2000/svg"><path d="M15.5 31.5c8.3 0 15-6.956 15-15.5S23.8.5 15.5.5.5 7.456.5 16s6.7 15.5 15 15.5z" fill="#BBFF2C" stroke="#000"/><path d="M15.648 7c-2.347 0-2.642.01-3.564.055-.92.044-1.548.193-2.1.416-.567.23-1.05.535-1.531 1.032a4.38 4.38 0 00-.997 1.585c-.214.568-.36 1.218-.403 2.171C7.01 13.213 7 13.518 7 15.947c0 2.428.01 2.733.053 3.687.043.951.187 1.601.403 2.172.221.587.516 1.086.997 1.585.48.496.962.804 1.532 1.03.549.222 1.178.373 2.1.418.92.044 1.216.054 3.563.054 2.348 0 2.643-.01 3.565-.054.92-.045 1.548-.194 2.1-.417a4.266 4.266 0 001.531-1.031c.48-.497.777-.996.997-1.585.214-.568.36-1.219.403-2.172.043-.954.053-1.259.053-3.687 0-2.429-.01-2.734-.053-3.688-.043-.95-.187-1.601-.403-2.171a4.444 4.444 0 00-.997-1.585 4.204 4.204 0 00-1.532-1.032c-.549-.22-1.178-.372-2.1-.416C18.293 7.01 17.997 7 15.649 7z" fill="#fff"/><path d="M15.648 8.612c2.31 0 2.582.009 3.494.053.842.04 1.3.185 1.605.307.403.162.692.356.995.67.303.313.49.61.647 1.028.118.316.258.79.297 1.661.04.943.05 1.227.05 3.614 0 2.386-.008 2.67-.05 3.613-.039.872-.18 1.345-.297 1.66a2.786 2.786 0 01-.647 1.03 2.66 2.66 0 01-.995.67c-.305.121-.763.266-1.605.306-.912.043-1.184.053-3.494.053-2.309 0-2.581-.008-3.493-.053-.842-.04-1.3-.185-1.605-.307a2.675 2.675 0 01-.995-.67 2.77 2.77 0 01-.647-1.028c-.118-.316-.258-.79-.297-1.66-.04-.944-.05-1.228-.05-3.614 0-2.387.008-2.671.05-3.614.039-.871.18-1.345.297-1.66.157-.417.344-.716.647-1.03a2.66 2.66 0 01.995-.669c.305-.122.763-.267 1.605-.307.912-.042 1.186-.053 3.493-.053zm0-1.612c-2.347 0-2.642.01-3.564.055-.92.044-1.548.193-2.1.416-.567.23-1.05.535-1.531 1.032a4.38 4.38 0 00-.997 1.585c-.214.568-.36 1.218-.403 2.171C7.01 13.213 7 13.518 7 15.947c0 2.428.01 2.733.053 3.687.043.951.187 1.601.403 2.172.221.587.516 1.086.997 1.585.48.496.962.804 1.532 1.03.549.222 1.178.373 2.1.418.92.044 1.216.054 3.563.054 2.348 0 2.643-.01 3.565-.054.92-.045 1.548-.194 2.1-.417a4.266 4.266 0 001.531-1.031c.48-.497.777-.996.997-1.585.214-.568.36-1.219.403-2.172.043-.954.053-1.259.053-3.687 0-2.429-.01-2.734-.053-3.688-.043-.95-.187-1.601-.403-2.171a4.444 4.444 0 00-.997-1.585 4.204 4.204 0 00-1.532-1.032c-.549-.22-1.178-.372-2.1-.416C18.293 7.01 17.997 7 15.649 7z" fill="#000"/><path d="M15.648 11.352c-2.451 0-4.44 2.056-4.44 4.592 0 2.536 1.989 4.592 4.44 4.592 2.452 0 4.44-2.056 4.44-4.592 0-2.536-1.988-4.592-4.44-4.592zm0 7.575c-1.59 0-2.883-1.335-2.883-2.983 0-1.648 1.29-2.982 2.883-2.982s2.883 1.334 2.883 2.982c0 1.648-1.29 2.982-2.883 2.982zm4.617-6.685c.573 0 1.037-.48 1.037-1.073s-.464-1.073-1.037-1.073-1.038.48-1.038 1.073.465 1.073 1.038 1.073z" fill="#000"/></svg>