<svg width="313" height="156" fill="none" xmlns="http://www.w3.org/2000/svg"><path d="M19.055 12c0-6.075 4.925-11 11-11H301c6.075 0 11 4.925 11 11v131.044c0 6.075-4.925 11-11 11H53.152c-.323 0-.608.009-.934.032-2.67.19-17.862 1.211-31.15.846-6.67-.184-12.749-.715-16.527-1.831-.937-.277-1.698-.58-2.277-.904-.587-.328-.928-.643-1.102-.916a.94.94 0 01-.131-.773c.077-.335.316-.801.865-1.402 8.139-8.92 13.97-20.852 16.138-25.657.7-1.552 1.021-3.226 1.021-4.9V12z" fill="#fff" stroke="#000" stroke-width="2"/></svg>