<svg width="31" height="32" fill="none" xmlns="http://www.w3.org/2000/svg"><path d="M15.5 31C23.508 31 30 24.284 30 16c0-8.284-6.492-15-14.5-15S1 7.716 1 16c0 8.284 6.492 15 14.5 15z" fill="#BBFF2C" stroke="#000"/><path d="M22.19 9.085l-.167-.471h0-.003l-.009.004-.035.012-.136.048-.517.183a1289.07 1289.07 0 00-7.533 2.696 448.801 448.801 0 00-5.86 2.158c-.828.314-1.542.591-2.08.81-.269.11-.497.207-.675.287-.164.075-.32.15-.42.218-.215.147-.404.303-.49.56a.963.963 0 00-.021.596.988.988 0 00.247.412 1.244 1.244 0 00.381.262l.011.004.005.002.002.001h.001l.186-.464-.185.465.016.006.017.006 4.182 1.338.04.013.04.006.072-.495-.071.495h.006l.01.002a1.064 1.064 0 00.127.01c.036 0 .09 0 .147-.007a.633.633 0 00.258-.09c.481-.298 2.87-1.779 5.201-3.208.736-.45 1.466-.897 2.128-1.298-.52.486-1.09 1.007-1.657 1.522a285.585 285.585 0 01-3.44 3.065l-.143.125-.335-.164-.069.72-.39 4.067-.002.017a1.56 1.56 0 00-.006.235c.005.115.027.365.183.571.09.12.226.224.407.266a.85.85 0 00.481-.038c.27-.096.562-.316.892-.64h0a34.608 34.608 0 011.88-1.706c1.348.917 2.704 1.869 3.3 2.372.44.372.847.45 1.185.439h.001a1.305 1.305 0 001.032-.573 1.71 1.71 0 00.238-.487l.004-.013.001-.005v-.002h.001v-.001l-.484-.126m0 0l.484.125.001-.002-.485-.123zm0 0l.485.122h0v-.002l.002-.006.007-.025.024-.099.095-.373a574.759 574.759 0 001.365-5.538c.376-1.56.756-3.17 1.048-4.49.286-1.297.501-2.367.529-2.807l.008-.106c.008-.092.016-.193.016-.282 0-.149-.01-.366-.06-.52l-.05.008.046-.016a.99.99 0 00-.237-.39.911.911 0 00-.33-.2m0 0s0 0 0 0l-.175.469.173-.47.001.001z" fill="#fff" stroke="#000"/></svg>