<svg width="114" height="131" viewBox="0 0 114 131" fill="none" xmlns="http://www.w3.org/2000/svg">
<g opacity="0.7">
<path d="M112.979 2.16809C113.911 0.811703 112.023 -0.729645 110.813 0.38013C102.59 7.95588 86.352 23.7856 82.0901 28.7025C75.7706 35.9931 59.7328 55.9228 50.5001 65.6411C41.2674 75.3593 2.94933 117.03 2.94933 117.03L15.5036 126.879C15.5036 126.879 57.3052 72.9317 64.1102 65.6411C70.2217 59.0903 97.1646 25.2961 112.979 2.16809Z" fill="#515092"/>
<path d="M2.25609 113.847C3.89763 112.028 6.74147 111.419 9.56985 111.55C10.1093 110.887 11.6892 111.003 12.3443 111.095C17.1918 111.774 21.2918 114.956 21.7465 120.051C22.1627 124.69 19.5193 128.99 14.9954 130.331C10.5717 131.642 4.60669 130.046 1.71665 126.339C-0.795753 123.11 -0.495226 116.906 2.25609 113.854V113.847Z" fill="#57B6FF"/>
</g>
</svg>
