<svg width="114" height="131" viewBox="0 0 114 131" fill="none" xmlns="http://www.w3.org/2000/svg">
<g opacity="0.7">
<path d="M0.250114 2.16809C-0.682405 0.811703 1.20575 -0.729645 2.41571 0.38013C10.6388 7.95588 26.877 23.7856 31.1389 28.7025C37.4584 35.9931 53.4962 55.9228 62.7289 65.6411C71.9616 75.3593 110.28 117.03 110.28 117.03L97.7254 126.879C97.7254 126.879 55.9238 72.9317 49.1188 65.6411C43.0073 59.0903 16.0644 25.2961 0.250114 2.16809Z" fill="#515092"/>
<path d="M110.973 113.847C109.331 112.028 106.488 111.419 103.659 111.55C103.12 110.887 101.54 111.003 100.885 111.095C96.0372 111.774 91.9372 114.956 91.4825 120.051C91.0663 124.69 93.7097 128.991 98.2336 130.331C102.657 131.642 108.622 130.046 111.512 126.339C114.025 123.11 113.724 116.906 110.973 113.854V113.847Z" fill="#BAA4FF"/>
</g>
</svg>
